<svg width="359" height="54" viewBox="0 0 359 54" fill="none" xmlns="http://www.w3.org/2000/svg">
<path d="M0 0H11.8153V51.9594H0V0Z" fill="#F0EFF3"/>
<path d="M23.0703 12.4266H32.6456L33.4493 17.445H33.7741C37.1939 14.2701 41.1095 11.4707 46.4614 11.4707C55.0108 11.4707 58.7554 17.5304 58.7554 27.4136V51.9594H47.0257V29.0181C47.0257 23.2828 45.5039 21.5246 42.1525 21.5246C39.1944 21.5246 37.3649 22.8731 34.8001 25.3482V51.9594H23.0703V12.4266Z" fill="#F0EFF3"/>
<path d="M64.4961 12.4258H76.3113L81.441 31.0827C82.484 34.9745 83.5099 39.1224 84.553 43.2703H84.8778C85.8354 39.1224 86.8613 34.9745 87.9043 31.0827L93.0339 12.4258H104.302L91.3925 51.9586H77.8331L64.4961 12.4258Z" fill="#F0EFF3"/>
<path d="M126.211 11.4707C137.462 11.4707 143.053 19.6811 143.053 30.4349C143.072 32.0973 142.911 33.7568 142.574 35.385H118.876C119.135 37.8612 120.353 40.1385 122.269 41.7325C124.185 43.3264 126.648 44.1111 129.135 43.9197C132.178 43.8782 135.145 42.9659 137.684 41.291L141.6 48.3748C137.463 51.2195 132.584 52.7974 127.562 52.9153C116.277 52.9153 107.539 45.2682 107.539 32.193C107.539 19.1178 116.721 11.4707 126.211 11.4707ZM133.05 28.1305C133.068 23.59 131.152 20.4834 126.536 20.4834C122.86 20.4834 119.696 22.9584 118.876 28.2158L133.05 28.1305Z" fill="#F0EFF3"/>
<path d="M152.946 40.079C155.811 42.5589 159.42 44.018 163.205 44.2269C166.625 44.2269 168.232 42.9467 168.232 40.813C168.232 38.1843 164.231 36.9894 160.162 35.3849C155.374 33.5585 149.714 30.2641 149.714 23.7606C149.714 16.4208 155.699 11.4023 164.881 11.4023C169.967 11.4771 174.883 13.243 178.851 16.4208L173.584 23.4363C171.216 21.4441 168.278 20.2494 165.189 20.0224C162.162 20.0224 160.726 21.1319 160.726 23.1291C160.726 25.6895 164.402 26.6454 168.472 28.1475C173.499 29.991 179.159 32.7733 179.159 40.0961C179.159 47.4189 173.465 52.9152 162.846 52.9152C157.33 52.7596 152.011 50.8321 147.68 47.4189L152.946 40.079Z" fill="#F0EFF3"/>
<path d="M188.073 21.5912H182.652V12.9029L188.705 12.4249L190.073 1.91016H199.802V12.4249H209.309V21.5912H199.871V37.4487C199.871 41.9039 201.871 43.7474 205 43.7474C206.286 43.7043 207.555 43.4326 208.745 42.9451L210.592 51.4798C207.738 52.4146 204.755 52.8984 201.752 52.9137C191.937 52.9137 188.073 46.7687 188.073 37.5512V21.5912Z" fill="#F0EFF3"/>
<path d="M260.734 0.000612582V52.6769H246.747V33.2178H230.384V52.6769H216.414V0.000612582H230.384V19.272H246.747V0.000612582H260.734Z" fill="url(#paint0_linear_8670_4073)"/>
<path d="M300.164 48.6656C300.677 48.2218 301.19 47.7609 301.668 47.283C302.147 46.805 302.489 46.4124 302.865 45.9857C305.326 43.0822 306.982 39.5867 307.67 35.8464C307.802 34.9529 307.882 34.0523 307.91 33.1495C307.367 32.9248 306.903 32.5447 306.576 32.057C305.557 30.445 304.714 28.7281 304.062 26.9362L300.933 29.9063C300.835 30.0228 300.712 30.1155 300.573 30.1776C300.433 30.2397 300.282 30.2695 300.13 30.2647C299.973 30.2648 299.818 30.2277 299.678 30.1564C299.539 30.0852 299.418 29.9819 299.326 29.8551C298.006 28.2758 297.323 26.2616 297.412 24.2065C297.5 22.1514 298.353 20.2031 299.805 18.7429C300.588 17.8892 301.56 17.2289 302.643 16.814C302.816 11.5073 304.706 6.39907 308.029 2.25378V0.000612582H294.094V32.4326C294.094 34.3113 293.346 36.1131 292.015 37.4416C290.685 38.7701 288.88 39.5164 286.998 39.5164C285.116 39.5164 283.311 38.7701 281.98 37.4416C280.649 36.1131 279.902 34.3113 279.902 32.4326V0.000612582H265.881V32.4326C265.84 35.1948 266.367 37.936 267.429 40.4871C268.491 43.0382 270.064 45.3453 272.053 47.2659C273.975 49.254 276.286 50.8267 278.842 51.8867C281.398 52.9467 284.145 53.4713 286.912 53.428C287.323 53.428 287.716 53.428 288.109 53.428C292.157 53.1818 296.049 51.7839 299.326 49.3996C299.6 49.0923 299.89 48.9046 300.164 48.6656Z" fill="url(#paint1_linear_8670_4073)"/>
<path d="M353.939 25.1097C355.224 22.6679 355.887 19.9478 355.871 17.1895C355.898 14.9181 355.456 12.6655 354.574 10.5717C353.692 8.47795 352.387 6.58786 350.741 5.01901C349.182 3.41419 347.313 2.14197 345.247 1.27937C343.18 0.416768 340.96 -0.0182722 338.721 0.000587989H312.902V2.20255C313.996 3.67052 315.125 5.30919 315.227 5.61644C317.207 9.07805 318.315 12.9672 318.459 16.9505C319.537 17.3361 320.513 17.9605 321.314 18.777C322.761 20.2442 323.609 22.1959 323.695 24.2528C323.78 26.3096 323.096 28.3247 321.776 29.9063C321.686 30.0352 321.566 30.1401 321.426 30.2115C321.285 30.283 321.13 30.3188 320.972 30.3159C320.82 30.3207 320.669 30.2909 320.529 30.2288C320.39 30.1667 320.267 30.074 320.169 29.9575L316.954 26.8167C316.292 28.7392 315.396 30.5736 314.287 32.2789C313.954 32.7482 313.481 33.1006 312.936 33.286C313.041 33.2596 313.144 33.2253 313.244 33.1836C313.244 42.3328 313.962 52.6598 328.633 53.3597H343.064C347.293 53.1092 351.255 51.2086 354.093 48.0682C357.04 45.0003 358.661 40.899 358.607 36.6487C358.627 34.5134 358.225 32.395 357.424 30.4149C356.623 28.4349 355.439 26.6321 353.939 25.1097ZM326.923 14.0999H338.67C339.169 14.0951 339.664 14.1908 340.125 14.3815C340.586 14.5721 341.004 14.8537 341.354 15.2095C341.712 15.5643 341.995 15.9875 342.186 16.4537C342.377 16.92 342.472 17.4198 342.466 17.9235C342.472 18.4221 342.377 18.917 342.186 19.3777C341.995 19.8385 341.712 20.2555 341.354 20.6034C341.012 20.9725 340.597 21.2663 340.134 21.4661C339.672 21.666 339.173 21.7675 338.67 21.7641H326.923V14.0999ZM343.885 38.1679C343.653 38.5153 343.337 38.799 342.967 38.9929C342.596 39.1867 342.183 39.2846 341.764 39.2774H326.923V31.5791H341.234C342 31.578 342.748 31.806 343.383 32.2336C344.017 32.6612 344.509 33.2687 344.794 33.9778C345.079 34.687 345.145 35.4652 344.983 36.212C344.821 36.9589 344.438 37.6401 343.885 38.1679Z" fill="url(#paint2_linear_8670_4073)"/>
<path d="M310.406 14.3219C311.719 14.3219 312.783 13.2596 312.783 11.9493C312.783 10.6389 311.719 9.57661 310.406 9.57661C309.093 9.57661 308.029 10.6389 308.029 11.9493C308.029 13.2596 309.093 14.3219 310.406 14.3219Z" fill="url(#paint3_linear_8670_4073)"/>
<path d="M314.782 14.7827L311.003 12.6149L311.294 12.1028L315.073 14.2707L314.782 14.7827Z" fill="url(#paint4_linear_8670_4073)"/>
<path d="M314.646 15.585C315.326 15.585 315.877 15.0347 315.877 14.356C315.877 13.6772 315.326 13.127 314.646 13.127C313.966 13.127 313.415 13.6772 313.415 14.356C313.415 15.0347 313.966 15.585 314.646 15.585Z" fill="url(#paint5_linear_8670_4073)"/>
<path d="M306.148 15.6362C306.828 15.6362 307.379 15.086 307.379 14.4072C307.379 13.7284 306.828 13.1782 306.148 13.1782C305.468 13.1782 304.917 13.7284 304.917 14.4072C304.917 15.086 305.468 15.6362 306.148 15.6362Z" fill="url(#paint6_linear_8670_4073)"/>
<path d="M306.455 14.5267L306.164 14.0146L309.926 11.8468L310.234 12.3589L306.455 14.5267Z" fill="url(#paint7_linear_8670_4073)"/>
<path d="M310.338 8.24517C311.017 8.24517 311.569 7.69493 311.569 7.01617C311.569 6.33742 311.017 5.78717 310.338 5.78717C309.658 5.78717 309.106 6.33742 309.106 7.01617C309.106 7.69493 309.658 8.24517 310.338 8.24517Z" fill="url(#paint8_linear_8670_4073)"/>
<path d="M310.697 7.30638H310.098V11.6591H310.697V7.30638Z" fill="url(#paint9_linear_8670_4073)"/>
<defs>
<linearGradient id="paint0_linear_8670_4073" x1="358.608" y1="26.3076" x2="216.457" y2="26.7152" gradientUnits="userSpaceOnUse">
<stop stop-color="#FF714F"/>
<stop offset="1" stop-color="#DFA34D"/>
</linearGradient>
<linearGradient id="paint1_linear_8670_4073" x1="358.608" y1="26.3076" x2="216.457" y2="26.7152" gradientUnits="userSpaceOnUse">
<stop stop-color="#FF714F"/>
<stop offset="1" stop-color="#DFA34D"/>
</linearGradient>
<linearGradient id="paint2_linear_8670_4073" x1="358.608" y1="26.3076" x2="216.457" y2="26.7152" gradientUnits="userSpaceOnUse">
<stop stop-color="#FF714F"/>
<stop offset="1" stop-color="#DFA34D"/>
</linearGradient>
<linearGradient id="paint3_linear_8670_4073" x1="358.608" y1="26.3076" x2="216.457" y2="26.7152" gradientUnits="userSpaceOnUse">
<stop stop-color="#FF714F"/>
<stop offset="1" stop-color="#DFA34D"/>
</linearGradient>
<linearGradient id="paint4_linear_8670_4073" x1="358.608" y1="26.3076" x2="216.457" y2="26.7152" gradientUnits="userSpaceOnUse">
<stop stop-color="#FF714F"/>
<stop offset="1" stop-color="#DFA34D"/>
</linearGradient>
<linearGradient id="paint5_linear_8670_4073" x1="358.608" y1="26.3076" x2="216.457" y2="26.7152" gradientUnits="userSpaceOnUse">
<stop stop-color="#FF714F"/>
<stop offset="1" stop-color="#DFA34D"/>
</linearGradient>
<linearGradient id="paint6_linear_8670_4073" x1="358.608" y1="26.3076" x2="216.457" y2="26.7152" gradientUnits="userSpaceOnUse">
<stop stop-color="#FF714F"/>
<stop offset="1" stop-color="#DFA34D"/>
</linearGradient>
<linearGradient id="paint7_linear_8670_4073" x1="358.608" y1="26.3076" x2="216.457" y2="26.7152" gradientUnits="userSpaceOnUse">
<stop stop-color="#FF714F"/>
<stop offset="1" stop-color="#DFA34D"/>
</linearGradient>
<linearGradient id="paint8_linear_8670_4073" x1="358.608" y1="26.3076" x2="216.457" y2="26.7152" gradientUnits="userSpaceOnUse">
<stop stop-color="#FF714F"/>
<stop offset="1" stop-color="#DFA34D"/>
</linearGradient>
<linearGradient id="paint9_linear_8670_4073" x1="358.608" y1="26.3076" x2="216.457" y2="26.7152" gradientUnits="userSpaceOnUse">
<stop stop-color="#FF714F"/>
<stop offset="1" stop-color="#DFA34D"/>
</linearGradient>
</defs>
</svg>
